<svg xmlns:dc="http://purl.org/dc/elements/1.1/" xmlns:cc="http://creativecommons.org/ns#" xmlns:rdf="http://www.w3.org/1999/02/22-rdf-syntax-ns#" xmlns:svg="http://www.w3.org/2000/svg" xmlns="http://www.w3.org/2000/svg" xmlns:sodipodi="http://sodipodi.sourceforge.net/DTD/sodipodi-0.dtd" xmlns:inkscape="http://www.inkscape.org/namespaces/inkscape" viewBox="0 0 100 100" version="1.1" x="0px" y="0px"><g><circle r="0" cy="56.791348" cx="50.75671" style="opacity:1;fill:#000000;fill-opacity:1;stroke:none;stroke-width:4;stroke-linejoin:miter;stroke-miterlimit:4;stroke-dasharray:none;stroke-opacity:1"></circle><path style="color:#000000;font-style:normal;font-variant:normal;font-weight:normal;font-stretch:normal;font-size:medium;line-height:normal;font-family:sans-serif;text-indent:0;text-align:start;text-decoration:none;text-decoration-line:none;text-decoration-style:solid;text-decoration-color:#000000;letter-spacing:normal;word-spacing:normal;text-transform:none;direction:ltr;block-progression:tb;writing-mode:lr-tb;baseline-shift:baseline;text-anchor:start;white-space:normal;clip-rule:nonzero;display:inline;overflow:visible;visibility:visible;opacity:1;isolation:auto;mix-blend-mode:normal;color-interpolation:sRGB;color-interpolation-filters:linearRGB;solid-color:#000000;solid-opacity:1;fill:#000000;fill-opacity:1;fill-rule:nonzero;stroke:none;stroke-width:4;stroke-linecap:butt;stroke-linejoin:round;stroke-miterlimit:4;stroke-dasharray:none;stroke-dashoffset:0;stroke-opacity:1;color-rendering:auto;image-rendering:auto;shape-rendering:auto;text-rendering:auto;enable-background:accumulate" d="m 36.611049,23.190848 c -3.936142,1.77e-4 -7.778326,1.594329 -10.560547,4.376954 -2.782236,2.782639 -4.375395,6.62465 -4.375,10.560546 1.77e-4,3.935268 1.592453,7.778 4.375,10.560547 2.782547,2.782547 6.62528,4.374825 10.560547,4.375 a 2.0002,2.0002 0 0 0 0.0059,0 c 1.843764,-0.0046 3.648583,-0.429307 5.363281,-1.097656 l 6.105469,5.960938 c -0.609601,1.645171 -0.999002,3.369012 -1.003907,5.126953 a 2.0002,2.0002 0 0 0 0,0.0059 c 1.76e-4,3.936144 1.594329,7.778325 4.376953,10.560547 2.78264,2.782236 6.624651,4.375395 10.560547,4.375 3.935268,-1.75e-4 7.778,-1.592454 10.560547,-4.375 2.782547,-2.782548 4.374825,-6.625279 4.375,-10.560547 -1.75e-4,-3.935268 -1.592453,-7.778 -4.375,-10.560547 -2.782013,-2.782013 -6.624116,-4.374203 -10.558594,-4.375 l -0.002,0 a 2.0002,2.0002 0 0 0 -0.0039,0 c -2.299514,0.005 -4.533063,0.651912 -6.585937,1.673828 l -5.435547,-5.30664 c 0.949328,-1.993029 1.550644,-4.145761 1.554687,-6.359375 a 2.0002,2.0002 0 0 0 0,-0.0039 c 3.95e-4,-3.936002 -1.591917,-7.779417 -4.375,-10.5625 -2.783082,-2.783082 -6.626496,-4.375395 -10.5625,-4.375 z m 0,4 c 2.837766,-2.84e-4 5.72768,1.19643 7.734375,3.203126 2.006245,2.006245 3.202873,4.89527 3.203125,7.732421 -0.0038,1.900091 -0.52289,3.818372 -1.476562,5.462891 a 2.0002,2.0002 0 0 0 0,0.002 c -0.574774,0.991933 -0.39881,2.273737 0.421875,3.074219 l 6.83789,6.675781 c 0.815102,0.794837 2.090753,0.944156 3.066407,0.357422 a 2.0002,2.0002 0 0 0 0.002,-0.002 c 1.678855,-1.01234 3.659786,-1.567255 5.61914,-1.572266 l 0.002,0 0.002,0 c 2.836111,0.0011 5.723003,1.197613 7.728515,3.203125 2.006345,2.006345 3.202999,4.895172 3.203125,7.732422 -1.26e-4,2.83725 -1.196779,5.726076 -3.203125,7.732422 -2.006346,2.006346 -4.895172,3.202998 -7.732422,3.203125 -2.837246,2.85e-4 -5.725379,-1.196373 -7.732422,-3.203125 -2.006157,-2.005867 -3.203876,-4.892743 -3.205078,-7.728516 0.0046,-1.543859 0.345584,-3.098505 0.986328,-4.503906 l -0.002,0.002 c 0.440638,-0.963976 0.22584,-2.119601 -0.533203,-2.859375 l -7.404297,-7.228515 a 2.0002,2.0002 0 0 0 -0.002,-0.002 c -0.753375,-0.732787 -1.901215,-0.92163 -2.849609,-0.46875 -1.447428,0.688541 -3.063381,1.055633 -4.666016,1.060547 -6.37e-4,0 -0.0013,10e-7 -0.002,0 -2.836635,-6.63e-4 -5.724574,-1.19723 -7.730469,-3.203125 -2.006346,-2.006346 -3.202997,-4.895171 -3.203125,-7.732422 -2.84e-4,-2.837245 1.196374,-5.725379 3.203125,-7.732421 2.006767,-2.007058 4.895423,-3.204951 7.732422,-3.205079 z"></path></g></svg>