<svg xmlns="http://www.w3.org/2000/svg" xmlns:xlink="http://www.w3.org/1999/xlink" version="1.1" x="0px" y="0px" viewBox="0 0 100 100" enable-background="new 0 0 100 100" xml:space="preserve"><g><path fill="none" d="M28.842,65.467l-0.154-0.011l-6.795-0.367l-0.12,0.001l-0.364-0.004l-0.068,0.001   c-2.942,0-4.67-0.499-6.659-1.36c-0.311-0.131-0.627-0.277-0.941-0.434c0.12,0.209,0.242,0.424,0.369,0.647   c0.846,1.484,1.736,3.051,2.671,4.708c0.957,1.692,1.628,2.914,2.05,3.735c0.262,0.522,0.41,0.836,0.502,1.072   c0.665,1.405,1.305,2.698,1.903,3.845c0.606,1.148,1.288,2.33,2.025,3.505c0.706,1.123,1.422,2.032,2.13,2.7   c0.55,0.52,0.914,0.658,1.043,0.658v1.915l0.002-1.915l20.541-0.191l-0.165-17.725C39.416,66.243,33.556,65.813,28.842,65.467z"></path><path fill="none" d="M75.237,20.084c-0.456,0.269-1.003,0.338-1.514,0.188c-0.509-0.15-0.932-0.503-1.171-0.977   c-0.146-0.291-0.418-0.769-0.807-1.419c-0.406-0.675-0.943-1.553-1.605-2.63c-0.676-1.099-1.275-2.112-1.783-3.014   c-0.517-0.925-0.829-1.498-0.952-1.733c-0.086-0.143-0.729-0.902-3.481-1.21c-2.493-0.28-6.553-0.394-12.034-0.349   c-3.457,0.033-6.118,0.064-8.094,0.093c0.84,0.494,1.677,1.084,2.505,1.765c0.186,0.154,0.368,0.311,0.548,0.475   c0.206,0.176,0.458,0.421,0.714,0.694c0.961,0.988,1.86,2.186,2.649,3.538c0.384,0.594,0.822,1.316,1.231,2.031l7.089,9.833   c0.314,0.436,0.431,0.984,0.322,1.51c-0.109,0.525-0.434,0.982-0.896,1.256l-0.579,0.344l13.418,1.1l5.358-12.037L75.237,20.084z"></path><path fill="none" d="M46.905,17.435c-0.76-1.177-1.514-2.187-2.135-2.849c-0.147-0.151-0.321-0.319-0.498-0.481   c-1.348-1.134-2.964-2.154-4.106-2.589l-0.295-0.109c-0.928-0.338-1.749-0.579-2.433-0.713l-0.021-0.001   c-0.069-0.008-0.162-0.008-0.27-0.008c-0.807,0-2.258,0.132-3.219,0.22c-0.35,0.032-0.652,0.057-0.872,0.074   c-0.313,0.104-0.539,0.194-0.7,0.269c-0.417,0.191-0.698,0.438-0.894,0.78c-0.018,0.032-0.036,0.063-0.056,0.094   c-0.216,0.332-0.593,0.972-1.133,1.911c-0.592,1.034-1.344,2.292-2.231,3.735c-0.841,1.373-1.789,2.93-2.85,4.676l-2.399,3.959   c-0.537,0.88-0.983,1.612-1.34,2.198l14.185,7.857l11.924-17.931c-0.045-0.073-0.091-0.146-0.137-0.22L46.905,17.435z"></path><path fill="none" d="M16.205,60.211c1.563,0.659,3.342,1.013,5.269,1.045l0.356-0.002c0.575,0,1.193,0.015,1.851,0.043   c-0.101-0.389-0.155-0.804-0.159-1.242c-0.007-0.894,0.264-1.837,0.805-2.807c0.233-0.464,0.599-0.995,1.145-1.663   c0.47-0.565,0.948-1.122,1.435-1.686c0.524-0.592,0.974-1.08,1.359-1.473l0.815-0.833c0.61-0.617,1.558-0.749,2.313-0.321   l0.059,0.035l-5.624-10.586l-12.278,0.381l0.482,0.286c0.566,0.337,0.92,0.94,0.937,1.598c0.017,0.655-0.302,1.273-0.846,1.639   c0.032-0.017-0.084,0.085-0.422,0.479c-0.205,0.243-0.571,0.737-1.114,1.668c-0.432,0.73-0.81,1.623-1.13,2.664   c-0.301,0.977-0.448,2.103-0.439,3.344c0.007,0.789,0.061,1.454,0.161,1.976c0.074,0.389,0.194,0.816,0.356,1.276   c0.557,1.066,2.524,3.218,4.271,4.006L16.205,60.211z"></path><path fill="none" d="M88.934,47.999l-4.29-8.006c-0.928-1.703-1.722-3.166-2.366-4.368c-0.072-0.134-0.157-0.292-0.248-0.461   l-14.238,8.613c1.004,1.553,2.613,4.036,4.824,7.446c3.348,5.168,5.536,8.549,6.555,10.151c0.409,0.639,0.702,1.089,0.912,1.407   c1.475-0.229,3.025-0.798,4.099-1.318c0.402-0.212,0.806-0.445,1.189-0.685c0.916-0.602,1.793-1.352,2.6-2.069   c0.205-0.196,0.439-0.427,0.658-0.65c0.621-0.665,1.234-1.463,1.682-2.047l0.222-0.288c0.019-0.029,0.036-0.058,0.051-0.085   c0.024-0.065,0.049-0.134,0.073-0.206c0.077-0.275,0.166-0.726,0.226-1.024c0.081-0.406,0.149-0.742,0.254-1.043   c0.022-0.223,0.034-0.438,0.031-0.641c-0.006-0.589-0.112-0.901-0.202-1.059C90.583,51.029,89.907,49.813,88.934,47.999z"></path><path fill="none" d="M85.896,64.888c-0.145,0.078-0.345,0.18-0.55,0.281c-1.86,0.918-3.874,1.433-5.989,1.533l-0.093,0.017   c-4.712,0.845-10.543,1.069-14.606,1.107c-0.499-0.036-1.005-0.196-1.368-0.556c-0.362-0.36-0.566-0.85-0.565-1.36l-6.314,10.105   l6.419,10.222l-0.003-0.295c-0.009-1.057,0.84-1.921,1.897-1.932l10.235-0.094c0.636-0.006,1.273-0.289,1.948-0.867   c0.884-0.753,1.768-1.789,2.629-3.082c0.909-1.363,1.753-2.814,2.51-4.313c0.779-1.534,1.792-3.644,3.014-6.272   c0.507-1.051,0.984-2.05,1.428-3.022c0.022-0.045,0.044-0.09,0.068-0.134c0.223-0.4,0.613-1.115,1.175-2.152   c0.083-0.144,0.165-0.286,0.246-0.425c-0.185,0.125-0.374,0.249-0.568,0.37C86.919,64.342,86.399,64.641,85.896,64.888z"></path><path d="M50.049,62.958c-0.358-0.352-0.84-0.548-1.341-0.548c-0.006,0-0.012,0-0.019,0c-8.005,0.076-14.345-0.379-19.357-0.746   c-0.449-0.237-1.307-0.742-1.762-1.073c-0.095-0.069-0.215-0.155-0.219-0.568c-0.001-0.102,0.03-0.396,0.335-0.932   c0.021-0.037,0.041-0.076,0.06-0.114c0.042-0.088,0.194-0.359,0.681-0.953c0.444-0.534,0.905-1.072,1.363-1.603   c0.366-0.413,0.698-0.776,0.994-1.087l4.51,2.569c0.741,0.422,1.673,0.303,2.282-0.291c0.611-0.594,0.756-1.519,0.357-2.272   l-9.281-17.468c-0.343-0.643-0.978-1.053-1.751-1.015L6.855,37.48c-0.851,0.026-1.582,0.611-1.794,1.436s0.145,1.69,0.877,2.125   l4.176,2.476c-0.264,0.385-0.54,0.827-0.827,1.318C8.708,45.814,8.208,46.983,7.8,48.31c-0.417,1.353-0.622,2.867-0.609,4.501   c0.008,1.035,0.083,1.908,0.229,2.665c0.117,0.613,0.303,1.273,0.554,1.964c0.029,0.218,0.062,0.688,0.085,1.043   c0.12,1.754,0.234,2.967,0.704,3.795c0.496,0.889,1.173,2.077,2.021,3.561c0.843,1.477,1.73,3.039,2.663,4.693   c0.92,1.626,1.585,2.837,1.969,3.585c0.174,0.347,0.295,0.59,0.349,0.731c0.022,0.059,0.046,0.118,0.073,0.176   c0.698,1.476,1.372,2.838,2.007,4.056c0.654,1.239,1.385,2.505,2.173,3.762c0.878,1.399,1.802,2.559,2.743,3.448   c1.196,1.131,2.432,1.705,3.673,1.705c0.007,0,0.031,0,0.036,0l22.457-0.209c0.508-0.005,0.993-0.211,1.349-0.573   c0.355-0.363,0.553-0.852,0.548-1.359l-0.201-21.545C50.619,63.799,50.412,63.314,50.049,62.958z M11.538,56.032   c-0.163-0.46-0.282-0.887-0.356-1.276c-0.1-0.522-0.154-1.187-0.161-1.976c-0.009-1.241,0.137-2.366,0.439-3.344   c0.321-1.041,0.698-1.934,1.13-2.664c0.542-0.931,0.909-1.425,1.114-1.668c0.338-0.394,0.453-0.496,0.422-0.479   c0.544-0.366,0.863-0.984,0.846-1.639c-0.017-0.658-0.371-1.261-0.937-1.598l-0.482-0.286l12.278-0.381l5.624,10.586l-0.059-0.035   c-0.755-0.428-1.704-0.296-2.313,0.321l-0.815,0.833c-0.385,0.393-0.836,0.881-1.359,1.473c-0.487,0.564-0.965,1.121-1.435,1.686   c-0.546,0.669-0.913,1.2-1.145,1.663c-0.541,0.97-0.813,1.913-0.805,2.807c0.004,0.438,0.058,0.853,0.159,1.242   c-0.658-0.028-1.276-0.043-1.851-0.043l-0.356,0.002c-1.927-0.033-3.705-0.386-5.269-1.045l-0.396-0.174   C14.062,59.25,12.096,57.098,11.538,56.032z M26.436,84.163l-0.002,1.915v-1.915c-0.128,0-0.493-0.138-1.043-0.658   c-0.708-0.669-1.424-1.577-2.13-2.7c-0.737-1.175-1.419-2.357-2.025-3.505c-0.597-1.146-1.238-2.439-1.903-3.845   c-0.093-0.237-0.24-0.551-0.502-1.072c-0.422-0.821-1.092-2.043-2.05-3.735c-0.935-1.657-1.825-3.224-2.671-4.708   c-0.127-0.223-0.25-0.439-0.369-0.647c0.313,0.157,0.629,0.303,0.941,0.434c1.989,0.861,3.717,1.36,6.659,1.36l0.068-0.001   l0.364,0.004l0.12-0.001l6.795,0.367l0.154,0.011c4.714,0.346,10.575,0.776,17.97,0.781l0.165,17.725L26.436,84.163z"></path><path d="M94.277,49.738c-0.382-0.632-1.026-1.793-1.967-3.547l-4.296-8.018c-0.929-1.705-1.718-3.159-2.359-4.358   c-0.695-1.291-1.085-2.007-1.293-2.338c-0.555-0.883-1.719-1.16-2.611-0.618L64.125,41.521c-0.442,0.267-0.757,0.701-0.874,1.204   c-0.117,0.503-0.025,1.031,0.252,1.466c0.583,0.911,2.553,3.952,5.899,9.115c3.283,5.065,5.447,8.409,6.488,10.045   c-3.115,0.381-6.484,0.549-9.328,0.614l0.016-4.763c0.003-0.856-0.562-1.609-1.384-1.847c-0.819-0.236-1.702,0.099-2.155,0.826   L52.528,75.004c-0.389,0.622-0.388,1.412,0.003,2.033l10.654,16.967c0.356,0.568,0.975,0.897,1.621,0.897   c0.179,0,0.36-0.025,0.539-0.078c0.822-0.24,1.384-0.998,1.376-1.854l-0.047-5.144l8.322-0.077c1.551-0.015,3.03-0.615,4.396-1.783   c1.152-0.982,2.272-2.283,3.33-3.871c0.994-1.491,1.916-3.076,2.74-4.708c0.798-1.57,1.831-3.719,3.057-6.362   c0.496-1.027,0.973-2.027,1.419-3.001c0.232-0.417,0.615-1.119,1.13-2.072c0.905-1.56,1.661-2.927,2.241-4.057   c0.443-0.856,0.698-2.404,1.065-4.851c0.073-0.486,0.143-0.957,0.212-1.378c0.283-1.058,0.422-2.062,0.411-2.979   C94.989,51.564,94.756,50.589,94.277,49.738z M87.731,64.076c-0.562,1.037-0.953,1.752-1.175,2.152   c-0.024,0.044-0.047,0.089-0.068,0.134c-0.444,0.972-0.921,1.971-1.428,3.022c-1.221,2.628-2.235,4.738-3.014,6.272   c-0.756,1.499-1.601,2.95-2.51,4.313c-0.861,1.293-1.746,2.329-2.629,3.082c-0.675,0.578-1.312,0.861-1.948,0.867l-10.235,0.094   c-1.057,0.01-1.906,0.875-1.897,1.932l0.003,0.295l-6.419-10.222l6.314-10.105c-0.001,0.511,0.203,1,0.565,1.36   c0.363,0.36,0.869,0.52,1.368,0.556c4.063-0.038,9.893-0.262,14.606-1.107l0.093-0.017c2.115-0.1,4.129-0.615,5.989-1.533   c0.205-0.101,0.405-0.204,0.55-0.281c0.503-0.247,1.023-0.546,1.513-0.868c0.194-0.122,0.382-0.245,0.568-0.37   C87.896,63.79,87.814,63.932,87.731,64.076z M91.139,53.366c-0.106,0.301-0.173,0.638-0.254,1.043   c-0.06,0.298-0.15,0.749-0.226,1.024c-0.024,0.072-0.049,0.141-0.073,0.206c-0.015,0.027-0.033,0.056-0.051,0.085l-0.222,0.288   c-0.448,0.583-1.061,1.382-1.682,2.047c-0.219,0.223-0.453,0.453-0.658,0.65c-0.807,0.717-1.684,1.467-2.6,2.069   c-0.383,0.24-0.787,0.473-1.189,0.685c-1.074,0.52-2.625,1.089-4.099,1.318c-0.209-0.318-0.503-0.769-0.912-1.407   c-1.019-1.603-3.207-4.984-6.555-10.151c-2.21-3.41-3.819-5.893-4.824-7.446l14.238-8.613c0.091,0.169,0.176,0.327,0.248,0.461   c0.643,1.202,1.437,2.666,2.366,4.368l4.29,8.006c0.973,1.814,1.648,3.029,2.034,3.666c0.09,0.158,0.196,0.47,0.202,1.059   C91.173,52.929,91.161,53.143,91.139,53.366z"></path><path d="M73.744,34.376l8.348-18.751c0.338-0.761,0.147-1.654-0.475-2.208c-0.622-0.554-1.532-0.64-2.248-0.22l-4.404,2.599   c-0.404-0.669-0.927-1.522-1.561-2.557c-0.651-1.057-1.227-2.03-1.707-2.883c-0.482-0.862-0.776-1.4-0.937-1.705   c-1.029-1.766-3.127-2.802-6.409-3.169c-2.682-0.301-6.775-0.42-12.494-0.373c-5.766,0.055-9.33,0.103-11.209,0.151   c-1.37,0.03-3.418,0.591-5.955,1.321l-0.528,0.151c-1.469,0.313-2.587,0.654-3.408,1.034c-1.125,0.513-1.997,1.291-2.593,2.313   c-0.241,0.377-0.627,1.029-1.212,2.044c-0.574,1.002-1.305,2.225-2.175,3.639c-0.843,1.378-1.793,2.94-2.856,4.688l-2.398,3.958   c-1.417,2.323-2.209,3.627-2.382,3.915c-0.266,0.445-0.341,0.98-0.207,1.481c0.135,0.502,0.468,0.927,0.922,1.179l17.472,9.678   c0.293,0.162,0.611,0.239,0.927,0.239c0.622,0,1.229-0.303,1.595-0.855l12.046-18.114l4.309,5.977l-3.935,2.34   c-0.716,0.425-1.074,1.266-0.886,2.078c0.188,0.812,0.879,1.408,1.709,1.476l20.748,1.7C72.647,35.583,73.413,35.12,73.744,34.376z    M35.637,36.457L21.452,28.6c0.357-0.586,0.803-1.318,1.34-2.198l2.399-3.959c1.061-1.746,2.009-3.303,2.85-4.676   c0.887-1.444,1.639-2.701,2.231-3.735c0.54-0.939,0.917-1.579,1.133-1.911c0.02-0.031,0.038-0.062,0.056-0.094   c0.195-0.342,0.477-0.589,0.894-0.78c0.161-0.075,0.387-0.165,0.7-0.269c0.221-0.017,0.523-0.042,0.872-0.074   c0.961-0.088,2.412-0.22,3.219-0.22c0.108,0,0.201,0,0.27,0.008l0.021,0.001c0.683,0.135,1.504,0.375,2.433,0.713l0.295,0.109   c1.142,0.435,2.757,1.455,4.106,2.589c0.178,0.162,0.352,0.33,0.498,0.481c0.621,0.662,1.374,1.672,2.135,2.849l0.519,0.871   c0.047,0.074,0.093,0.147,0.137,0.22L35.637,36.457z M57.38,30.478l0.579-0.344c0.462-0.274,0.786-0.73,0.896-1.256   c0.109-0.526-0.007-1.074-0.322-1.51l-7.089-9.833c-0.41-0.715-0.847-1.437-1.231-2.031c-0.789-1.352-1.688-2.55-2.649-3.538   c-0.256-0.273-0.509-0.518-0.714-0.694c-0.18-0.164-0.362-0.321-0.548-0.475c-0.827-0.682-1.665-1.272-2.505-1.765   c1.977-0.029,4.638-0.06,8.094-0.093c5.481-0.045,9.542,0.069,12.034,0.349c2.752,0.308,3.395,1.067,3.481,1.21   c0.122,0.236,0.435,0.809,0.952,1.733c0.508,0.901,1.107,1.915,1.783,3.014c0.662,1.077,1.2,1.955,1.605,2.63   c0.389,0.651,0.661,1.129,0.807,1.419c0.238,0.474,0.662,0.827,1.171,0.977c0.511,0.151,1.057,0.081,1.514-0.188l0.919-0.543   l-5.358,12.037L57.38,30.478z"></path></g></svg>